<svg width="40" height="40" viewBox="0 0 40 40" fill="none" xmlns="http://www.w3.org/2000/svg">
<path d="M35 20V31.6667C35 32.5507 34.6488 33.3986 34.0237 34.0237C33.3986 34.6488 32.5507 35 31.6667 35H8.33333C7.44928 35 6.60143 34.6488 5.97631 34.0237C5.35119 33.3986 5 32.5507 5 31.6667V8.33333C5 7.44928 5.35119 6.60143 5.97631 5.97631C6.60143 5.35119 7.44928 5 8.33333 5H20" stroke="black" stroke-width="2" stroke-linecap="round" stroke-linejoin="round"/>
<path d="M26.667 8.33301H36.667" stroke="black" stroke-width="2" stroke-linecap="round" stroke-linejoin="round"/>
<path d="M31.667 3.33301V13.333" stroke="black" stroke-width="2" stroke-linecap="round" stroke-linejoin="round"/>
<path d="M15.0003 18.3337C16.8413 18.3337 18.3337 16.8413 18.3337 15.0003C18.3337 13.1594 16.8413 11.667 15.0003 11.667C13.1594 11.667 11.667 13.1594 11.667 15.0003C11.667 16.8413 13.1594 18.3337 15.0003 18.3337Z" stroke="black" stroke-width="2" stroke-linecap="round" stroke-linejoin="round"/>
<path d="M35 25.0001L29.8567 19.8568C29.2316 19.2319 28.3839 18.8809 27.5 18.8809C26.6161 18.8809 25.7684 19.2319 25.1433 19.8568L10 35.0001" stroke="black" stroke-width="2" stroke-linecap="round" stroke-linejoin="round"/>
</svg>
