<svg width="15" height="15" viewBox="0 0 15 15" fill="none" xmlns="http://www.w3.org/2000/svg">
<g clip-path="url(#clip0_250_113)">
<path d="M10.625 1.25H4.375C2.64911 1.25 1.25 2.64911 1.25 4.375V10.625C1.25 12.3509 2.64911 13.75 4.375 13.75H10.625C12.3509 13.75 13.75 12.3509 13.75 10.625V4.375C13.75 2.64911 12.3509 1.25 10.625 1.25Z" stroke="#ACD1F2" stroke-width="2" stroke-linecap="round" stroke-linejoin="round"/>
<path d="M10.0003 7.10619C10.0774 7.62635 9.98859 8.15758 9.7464 8.62433C9.50422 9.09108 9.12102 9.46958 8.65132 9.70599C8.18162 9.9424 7.64934 10.0247 7.13017 9.94115C6.61101 9.85761 6.13141 9.6125 5.75958 9.24067C5.38775 8.86884 5.14264 8.38924 5.0591 7.87008C4.97556 7.35091 5.05785 6.81863 5.29426 6.34893C5.53067 5.87923 5.90917 5.49603 6.37592 5.25385C6.84267 5.01166 7.3739 4.92281 7.89406 4.99994C8.42463 5.07862 8.91584 5.32586 9.29511 5.70514C9.67439 6.08441 9.92163 6.57562 10.0003 7.10619Z" stroke="#ACD1F2" stroke-width="2" stroke-linecap="round" stroke-linejoin="round"/>
<path d="M10.9375 4.0625H10.9438" stroke="#ACD1F2" stroke-width="2" stroke-linecap="round" stroke-linejoin="round"/>
</g>
<defs>
<clipPath id="clip0_250_113">
<rect width="15" height="15" fill="white"/>
</clipPath>
</defs>
</svg>
