<svg width="25" height="25" viewBox="0 0 25 25" fill="none" xmlns="http://www.w3.org/2000/svg">
<path d="M22.9166 13.5415V6.24984C22.9166 5.6973 22.6971 5.1674 22.3064 4.7767C21.9157 4.386 21.3858 4.1665 20.8333 4.1665H4.16659C3.61405 4.1665 3.08415 4.386 2.69345 4.7767C2.30275 5.1674 2.08325 5.6973 2.08325 6.24984V18.7498C2.08325 19.8957 3.02075 20.8332 4.16659 20.8332H12.4999" stroke="#ACD1F2" stroke-width="2" stroke-linecap="round" stroke-linejoin="round"/>
<path d="M22.9166 7.2915L13.5728 13.229C13.2512 13.4305 12.8794 13.5373 12.4999 13.5373C12.1204 13.5373 11.7486 13.4305 11.427 13.229L2.08325 7.2915" stroke="#ACD1F2" stroke-width="2" stroke-linecap="round" stroke-linejoin="round"/>
<path d="M19.7917 16.6665V22.9165" stroke="#ACD1F2" stroke-width="2" stroke-linecap="round" stroke-linejoin="round"/>
<path d="M16.6667 19.7915H22.9167" stroke="#ACD1F2" stroke-width="2" stroke-linecap="round" stroke-linejoin="round"/>
</svg>
