<svg width="36" height="36" viewBox="0 0 36 36" fill="none" xmlns="http://www.w3.org/2000/svg">
<path d="M4.5 16.5L31.5 9V27L4.5 21V16.5Z" stroke="black" stroke-width="2" stroke-linecap="round" stroke-linejoin="round"/>
<path d="M17.3996 25.2C17.242 25.7713 16.9734 26.3059 16.6092 26.7734C16.2451 27.2408 15.7923 27.632 15.277 27.9245C14.7616 28.217 14.1937 28.4051 13.6056 28.4781C13.0175 28.5512 12.4208 28.5076 11.8496 28.35C11.2783 28.1925 10.7437 27.9239 10.2763 27.5597C9.8088 27.1955 9.41765 26.7428 9.12515 26.2274C8.83265 25.7121 8.64451 25.1441 8.5715 24.5561C8.49848 23.968 8.54201 23.3713 8.69959 22.8" stroke="black" stroke-width="2" stroke-linecap="round" stroke-linejoin="round"/>
</svg>
