<svg width="36" height="36" viewBox="0 0 36 36" fill="none" xmlns="http://www.w3.org/2000/svg">
<path d="M4.5 10.5V13.5C5.69347 13.5 6.83807 13.9741 7.68198 14.818C8.52589 15.6619 9 16.8065 9 18C9 19.1935 8.52589 20.3381 7.68198 21.182C6.83807 22.0259 5.69347 22.5 4.5 22.5V25.5C4.5 27.15 5.85 28.5 7.5 28.5H28.5C29.2956 28.5 30.0587 28.1839 30.6213 27.6213C31.1839 27.0587 31.5 26.2956 31.5 25.5V22.5C30.3065 22.5 29.1619 22.0259 28.318 21.182C27.4741 20.3381 27 19.1935 27 18C27 16.8065 27.4741 15.6619 28.318 14.818C29.1619 13.9741 30.3065 13.5 31.5 13.5V10.5C31.5 9.70435 31.1839 8.94129 30.6213 8.37868C30.0587 7.81607 29.2956 7.5 28.5 7.5H7.5C6.70435 7.5 5.94129 7.81607 5.37868 8.37868C4.81607 8.94129 4.5 9.70435 4.5 10.5Z" stroke="black" stroke-width="2" stroke-linecap="round" stroke-linejoin="round"/>
<path d="M19.5 7.5V10.5" stroke="black" stroke-width="2" stroke-linecap="round" stroke-linejoin="round"/>
<path d="M19.5 25.5V28.5" stroke="black" stroke-width="2" stroke-linecap="round" stroke-linejoin="round"/>
<path d="M19.5 16.5V19.5" stroke="black" stroke-width="2" stroke-linecap="round" stroke-linejoin="round"/>
</svg>
